<svg width="126" height="126" viewBox="0 0 126 126" fill="none" xmlns="http://www.w3.org/2000/svg">
<g clip-path="url(#clip0_1466_708)">
<path d="M94.6679 62.8988C77.3639 62.8988 63.3359 76.9794 63.3359 94.3482C63.3359 111.717 77.3639 125.798 94.6679 125.798C111.972 125.798 126 111.717 126 94.3482C126 76.9794 111.972 62.8988 94.6679 62.8988ZM107.99 83.2524C107.99 84.4497 107.016 85.4277 105.823 85.4277H99.4223V110.933C99.4223 112.13 98.4479 113.108 97.2551 113.108H93.0719C91.8791 113.108 90.9047 112.13 90.9047 110.933V85.4277H83.5211C82.3283 85.4277 81.3539 84.4497 81.3539 83.2524V79.0535C81.3539 77.8562 82.3283 76.8782 83.5211 76.8782H105.832C107.024 76.8782 107.999 77.8562 107.999 79.0535V83.2524H107.99Z" fill="#00213C"/>
<path d="M94.6679 7.7401C107.688 7.7401 118.289 18.3722 118.289 31.4494C118.289 44.5266 107.696 55.1587 94.6679 55.1587C81.6395 55.1587 71.0471 44.5266 71.0471 31.4494C71.0471 18.3722 81.6395 7.7401 94.6679 7.7401ZM94.6679 0C77.3639 0 63.3359 14.0806 63.3359 31.4494C63.3359 48.8183 77.3639 62.8988 94.6679 62.8988C111.972 62.8988 126 48.8183 126 31.4494C126 14.0806 111.972 0 94.6679 0Z" fill="#00213C"/>
<path d="M31.9956 0.193939H0V31.6518C0 49.0206 14.6916 63.1012 31.9956 63.1012C49.2996 63.1012 63.3276 49.0206 63.3276 31.6518C63.3276 14.2829 49.2996 0.193939 31.9956 0.193939Z" fill="#00213C"/>
<path d="M31.9956 70.8413C45.0156 70.8413 55.6164 81.4734 55.6164 94.5506C55.6164 107.628 45.024 118.26 31.9956 118.26H7.7112V94.5506C7.7112 88.3029 10.2564 82.3756 14.8848 77.8647C19.53 73.337 25.6032 70.8413 31.9956 70.8413ZM31.9956 63.1012C14.6916 63.1012 0 77.1818 0 94.5506V126H31.9956C49.2996 126 63.3276 111.919 63.3276 94.5506C63.3276 77.1818 49.2996 63.1012 31.9956 63.1012ZM35.9268 109.525V79.5763C35.9268 78.008 34.65 76.7349 33.096 76.7349H30.24C28.6776 76.7349 27.4092 78.0165 27.4092 79.5763V109.525C27.4092 111.093 28.686 112.366 30.24 112.366H33.096C34.6584 112.366 35.9268 111.085 35.9268 109.525Z" fill="#00213C"/>
</g>
<defs>
<clipPath id="clip0_1466_708">
<rect width="126" height="126" fill="white"/>
</clipPath>
</defs>
</svg>
