<svg width="151" height="150" viewBox="0 0 151 150" fill="none" xmlns="http://www.w3.org/2000/svg">
<g clip-path="url(#clip0_1328_1040)">
<path d="M113.2 74.6001C92.6 74.6001 75.9 91.3001 75.9 111.9C75.9 132.5 92.6 149.2 113.2 149.2C133.8 149.2 150.5 132.5 150.5 111.9C150.5 91.3001 133.8 74.6001 113.2 74.6001ZM129.06 98.7401C129.06 100.16 127.9 101.32 126.48 101.32H118.86V131.57C118.86 132.99 117.7 134.15 116.28 134.15H111.3C109.88 134.15 108.72 132.99 108.72 131.57V101.32H99.93C98.51 101.32 97.35 100.16 97.35 98.7401V93.7601C97.35 92.3401 98.51 91.1801 99.93 91.1801H126.49C127.91 91.1801 129.07 92.3401 129.07 93.7601V98.7401H129.06Z" fill="white"/>
<path d="M113.2 9.18C128.7 9.18 141.32 21.79 141.32 37.3C141.32 52.81 128.71 65.42 113.2 65.42C97.69 65.42 85.08 52.81 85.08 37.3C85.08 21.79 97.69 9.18 113.2 9.18ZM113.2 0C92.6 0 75.9 16.7 75.9 37.3C75.9 57.9 92.6 74.6 113.2 74.6C133.8 74.6 150.5 57.9 150.5 37.3C150.5 16.7 133.8 0 113.2 0Z" fill="white"/>
<path d="M38.59 0.22998H0.5V37.54C0.5 58.14 17.99 74.84 38.59 74.84C59.19 74.84 75.89 58.14 75.89 37.54C75.89 16.94 59.19 0.22998 38.59 0.22998Z" fill="white"/>
<path d="M38.59 84.0201C54.09 84.0201 66.71 96.6301 66.71 112.14C66.71 127.65 54.1 140.26 38.59 140.26H9.68V112.14C9.68 104.73 12.71 97.7001 18.22 92.3501C23.75 86.9801 30.98 84.0201 38.59 84.0201ZM38.59 74.8401C17.99 74.8401 0.5 91.5401 0.5 112.14V149.44H38.59C59.19 149.44 75.89 132.74 75.89 112.14C75.89 91.5401 59.19 74.8401 38.59 74.8401ZM43.27 129.9V94.3801C43.27 92.5201 41.75 91.0101 39.9 91.0101H36.5C34.64 91.0101 33.13 92.5301 33.13 94.3801V129.9C33.13 131.76 34.65 133.27 36.5 133.27H39.9C41.76 133.27 43.27 131.75 43.27 129.9Z" fill="white"/>
</g>
<defs>
<clipPath id="clip0_1328_1040">
<rect width="150" height="149.44" fill="white" transform="translate(0.5)"/>
</clipPath>
</defs>
</svg>
