<svg width="64" height="66" viewBox="0 0 64 66" fill="none" xmlns="http://www.w3.org/2000/svg">
<g clip-path="url(#clip0_1465_666)">
<path d="M48.0853 32.947C39.296 32.947 32.1707 40.3226 32.1707 49.4205C32.1707 58.5185 39.296 65.894 48.0853 65.894C56.8747 65.894 64 58.5185 64 49.4205C64 40.3226 56.8747 32.947 48.0853 32.947ZM54.8523 43.6084C54.8523 44.2356 54.3573 44.7479 53.7515 44.7479H50.5003V58.1078C50.5003 58.7349 50.0053 59.2472 49.3995 59.2472H47.2747C46.6688 59.2472 46.1739 58.7349 46.1739 58.1078V44.7479H42.4235C41.8176 44.7479 41.3227 44.2356 41.3227 43.6084V41.409C41.3227 40.7819 41.8176 40.2696 42.4235 40.2696H53.7557C54.3616 40.2696 54.8565 40.7819 54.8565 41.409V43.6084H54.8523Z" fill="white"/>
<path d="M48.0853 4.05434C54.6987 4.05434 60.0832 9.62353 60.0832 16.4735C60.0832 23.3235 54.7029 28.8927 48.0853 28.8927C41.4677 28.8927 36.0875 23.3235 36.0875 16.4735C36.0875 9.62353 41.4677 4.05434 48.0853 4.05434ZM48.0853 0C39.296 0 32.1707 7.37554 32.1707 16.4735C32.1707 25.5715 39.296 32.947 48.0853 32.947C56.8747 32.947 64 25.5715 64 16.4735C64 7.37554 56.8747 0 48.0853 0Z" fill="white"/>
<path d="M16.2517 0.101562H0V16.5795C0 25.6774 7.4624 33.053 16.2517 33.053C25.0411 33.053 32.1664 25.6774 32.1664 16.5795C32.1664 7.48151 25.0411 0.101562 16.2517 0.101562Z" fill="white"/>
<path d="M16.2517 37.1073C22.8651 37.1073 28.2496 42.6765 28.2496 49.5265C28.2496 56.3765 22.8693 61.9456 16.2517 61.9456H3.9168V49.5265C3.9168 46.2539 5.2096 43.1491 7.56053 40.7863C9.92 38.4146 13.0048 37.1073 16.2517 37.1073ZM16.2517 33.053C7.4624 33.053 0 40.4285 0 49.5265V66H16.2517C25.0411 66 32.1664 58.6244 32.1664 49.5265C32.1664 40.4285 25.0411 33.053 16.2517 33.053ZM18.2485 57.3702V41.6828C18.2485 40.8613 17.6 40.1944 16.8107 40.1944H15.36C14.5664 40.1944 13.9221 40.8657 13.9221 41.6828V57.3702C13.9221 58.1916 14.5707 58.8585 15.36 58.8585H16.8107C17.6043 58.8585 18.2485 58.1872 18.2485 57.3702Z" fill="white"/>
</g>
<defs>
<clipPath id="clip0_1465_666">
<rect width="64" height="66" fill="white"/>
</clipPath>
</defs>
</svg>
