<svg width="120" height="121" viewBox="0 0 120 121" fill="none" xmlns="http://www.w3.org/2000/svg">
<g clip-path="url(#clip0_1429_1031)">
<path d="M19 56.518L19 103L66.5064 103C92.7361 103 114 81.6566 114 56.518C114 31.3794 92.7361 11 66.5064 11C40.2766 11 19 31.3794 19 56.518Z" fill="url(#paint0_linear_1429_1031)"/>
<path d="M13 69.149L13 103L47.5046 103C66.5557 103 82 87.4564 82 69.149C82 50.8415 66.5557 36 47.5046 36C28.4536 36 13 50.8415 13 69.149Z" fill="url(#paint1_linear_1429_1031)"/>
<path d="M22.503 100.5L2.5 100.5L2.5 80.2642C2.5 69.3742 11.4337 60.5 22.503 60.5C33.5715 60.5 42.5 69.3733 42.5 80.2642C42.5 91.2232 33.5037 100.5 22.503 100.5Z" stroke="#5BEDB8" stroke-width="5"/>
</g>
<defs>
<linearGradient id="paint0_linear_1429_1031" x1="19.5239" y1="104.167" x2="102.313" y2="33.4411" gradientUnits="userSpaceOnUse">
<stop stop-color="#449BD7"/>
<stop offset="0.367095" stop-color="#005996"/>
<stop offset="0.607597" stop-color="#003F72"/>
<stop offset="0.979167" stop-color="#00213C"/>
</linearGradient>
<linearGradient id="paint1_linear_1429_1031" x1="13.3805" y1="103.85" x2="73.6472" y2="52.5022" gradientUnits="userSpaceOnUse">
<stop stop-color="#449BD7"/>
<stop offset="0.367095" stop-color="#005996"/>
<stop offset="0.607597" stop-color="#003F72"/>
<stop offset="0.979167" stop-color="#00213C"/>
</linearGradient>
<clipPath id="clip0_1429_1031">
<rect width="120" height="120" fill="white" transform="translate(0 0.231934)"/>
</clipPath>
</defs>
</svg>
