<svg width="100" height="101" viewBox="0 0 100 101" fill="none" xmlns="http://www.w3.org/2000/svg">
<path d="M33.1178 40.4156L43.251 49.8887L33.4039 60.4248C28.0786 66.1227 19.2372 66.4423 13.6632 61.2313C8.08984 56.021 7.81482 47.1801 13.1407 41.4815C18.5137 35.7327 27.5934 35.251 33.1178 40.4156Z" stroke="#5BEDB8" stroke-width="5"/>
<path d="M38.8037 65.4724L50.3579 53.1098L62.4548 64.4188C69.1339 70.6628 69.243 81.4012 62.9943 88.0872C56.7455 94.7732 46.2651 95.1315 39.5861 88.8875C32.907 82.6435 32.555 72.1584 38.8037 65.4724Z" fill="url(#paint0_linear_1328_854)"/>
<path d="M61.3101 34.7784L49.8857 47.0021L37.7889 35.6932C31.1098 29.4492 30.941 18.7745 37.1196 12.1636C43.2981 5.55277 53.7216 5.25537 60.4006 11.4994C67.0797 17.7434 67.4887 28.1676 61.3101 34.7784Z" fill="url(#paint1_linear_1328_854)"/>
<path d="M65.001 37.4645L53.1711 49.296L64.8799 61.0064C71.3447 67.4721 82.0176 67.2809 88.4155 60.8821C94.8134 54.4834 94.7592 44.0544 88.2944 37.5888C81.8296 31.1231 71.3989 31.0658 65.001 37.4645Z" fill="url(#paint2_linear_1328_854)"/>
<defs>
<linearGradient id="paint0_linear_1328_854" x1="50.7813" y1="52.9243" x2="55.925" y2="91.2221" gradientUnits="userSpaceOnUse">
<stop stop-color="#449BD7"/>
<stop offset="0.367095" stop-color="#005996"/>
<stop offset="0.607597" stop-color="#003F72"/>
<stop offset="0.979167" stop-color="#00213C"/>
</linearGradient>
<linearGradient id="paint1_linear_1328_854" x1="49.4656" y1="47.1842" x2="44.5568" y2="9.0328" gradientUnits="userSpaceOnUse">
<stop stop-color="#449BD7"/>
<stop offset="0.367095" stop-color="#005996"/>
<stop offset="0.607597" stop-color="#003F72"/>
<stop offset="0.979167" stop-color="#00213C"/>
</linearGradient>
<linearGradient id="paint2_linear_1328_854" x1="53.0033" y1="49.7221" x2="91.2936" y2="53.3403" gradientUnits="userSpaceOnUse">
<stop stop-color="#449BD7"/>
<stop offset="0.367095" stop-color="#005996"/>
<stop offset="0.607597" stop-color="#003F72"/>
<stop offset="0.979167" stop-color="#00213C"/>
</linearGradient>
</defs>
</svg>
