<svg width="24" height="25" viewBox="0 0 24 25" fill="none" xmlns="http://www.w3.org/2000/svg">
<path d="M19.3462 12.1041C18.9853 12.1041 18.6925 12.388 18.6925 12.7387V17.1456C18.6925 18.2951 17.7292 19.2307 16.5448 19.2307H7.45523C6.27117 19.2307 5.30751 18.2955 5.30751 17.1456V7.85404C5.30751 6.70424 6.27085 5.76902 7.45523 5.76902H11.6951C12.0561 5.76902 12.3489 5.4851 12.3489 5.13435C12.3489 4.78361 12.0564 4.5 11.6954 4.5H7.45556C5.5502 4.5 4 6.00463 4 7.85404V17.1453C4 18.9951 5.5502 20.5 7.45523 20.5H16.5448C18.4498 20.5 20 18.9951 20 17.1456V12.7384C20 12.388 19.7075 12.1041 19.3462 12.1041Z" fill="#5BEDB8"/>
<path d="M19.3227 4.55737H15.6557C15.2819 4.55769 14.9784 4.85196 14.9778 5.21557C14.9781 5.57918 15.2819 5.87314 15.6557 5.87314H17.6826L17.6855 5.87596L11.5665 11.8374C11.3564 12.0413 11.3564 12.3723 11.5665 12.5762L11.7636 12.7676C11.9737 12.9715 12.3146 12.9715 12.525 12.7676L18.6427 6.80741L18.6447 6.80929V8.77886C18.6447 9.14184 18.9481 9.43706 19.3227 9.43643C19.6965 9.43675 20 9.14184 20 8.77886V5.21871V5.21557C20 4.85228 19.6965 4.55737 19.3227 4.55737Z" fill="#5BEDB8"/>
</svg>
