<svg width="100" height="101" viewBox="0 0 100 101" fill="none" xmlns="http://www.w3.org/2000/svg">
<ellipse cx="50.285" cy="16.2217" rx="16.2217" ry="16.5367" transform="rotate(90 50.285 16.2217)" fill="url(#paint0_linear_1328_845)"/>
<ellipse cx="83.4632" cy="32.6826" rx="15.9832" ry="16.5367" transform="rotate(-90 83.4632 32.6826)" fill="url(#paint1_linear_1328_845)"/>
<ellipse cx="49.3124" cy="83.9716" rx="16.2217" ry="16.5367" transform="rotate(90 49.3124 83.9716)" fill="url(#paint2_linear_1328_845)"/>
<ellipse cx="16.5367" cy="67.5112" rx="15.9832" ry="16.5367" transform="rotate(-90 16.5367 67.5112)" fill="url(#paint3_linear_1328_845)"/>
<ellipse cx="17.212" cy="32.4432" rx="16.2217" ry="16.5367" transform="rotate(-180 17.212 32.4432)" fill="url(#paint4_linear_1328_845)"/>
<path d="M94.1921 67.5111C94.1921 74.2819 88.7886 79.7946 82.1425 79.7946C75.4965 79.7946 70.093 74.2862 70.093 67.5111C70.093 60.736 75.4965 55.2276 82.1425 55.2276C88.7886 55.2276 94.1921 60.736 94.1921 67.5111ZM98.1257 67.5111C98.1257 58.5125 90.9697 51.2176 82.1425 51.2176C73.3154 51.2176 66.1594 58.5125 66.1594 67.5111C66.1594 76.5097 73.3154 83.8046 82.1425 83.8046C90.9697 83.8046 98.1257 76.5097 98.1257 67.5111Z" fill="#5BEDB8"/>
<defs>
<linearGradient id="paint0_linear_1328_845" x1="33.6519" y1="-0.132597" x2="58.223" y2="29.0018" gradientUnits="userSpaceOnUse">
<stop stop-color="#449BD7"/>
<stop offset="0.367095" stop-color="#005996"/>
<stop offset="0.607597" stop-color="#003F72"/>
<stop offset="0.979167" stop-color="#00213C"/>
</linearGradient>
<linearGradient id="paint1_linear_1328_845" x1="67.0747" y1="16.3282" x2="91.7047" y2="45.103" gradientUnits="userSpaceOnUse">
<stop stop-color="#449BD7"/>
<stop offset="0.367095" stop-color="#005996"/>
<stop offset="0.607597" stop-color="#003F72"/>
<stop offset="0.979167" stop-color="#00213C"/>
</linearGradient>
<linearGradient id="paint2_linear_1328_845" x1="32.6792" y1="67.6172" x2="57.2504" y2="96.7516" gradientUnits="userSpaceOnUse">
<stop stop-color="#449BD7"/>
<stop offset="0.367095" stop-color="#005996"/>
<stop offset="0.607597" stop-color="#003F72"/>
<stop offset="0.979167" stop-color="#00213C"/>
</linearGradient>
<linearGradient id="paint3_linear_1328_845" x1="0.148169" y1="51.1569" x2="24.7782" y2="79.9316" gradientUnits="userSpaceOnUse">
<stop stop-color="#449BD7"/>
<stop offset="0.367095" stop-color="#005996"/>
<stop offset="0.607597" stop-color="#003F72"/>
<stop offset="0.979167" stop-color="#00213C"/>
</linearGradient>
<linearGradient id="paint4_linear_1328_845" x1="0.578811" y1="16.0888" x2="25.1499" y2="45.2232" gradientUnits="userSpaceOnUse">
<stop stop-color="#449BD7"/>
<stop offset="0.367095" stop-color="#005996"/>
<stop offset="0.607597" stop-color="#003F72"/>
<stop offset="0.979167" stop-color="#00213C"/>
</linearGradient>
</defs>
</svg>
